<svg width="533" height="89" viewBox="0 0 533 89" fill="none" xmlns="http://www.w3.org/2000/svg">
<path fill-rule="evenodd" clip-rule="evenodd" d="M295.5 9C297.985 9 300 6.98528 300 4.5C300 2.01472 297.985 0 295.5 0C293.015 0 291 2.01472 291 4.5C291 6.98528 293.015 9 295.5 9ZM409.5 14C411.985 14 414 11.9853 414 9.5C414 7.01472 411.985 5 409.5 5C407.015 5 405 7.01472 405 9.5C405 11.9853 407.015 14 409.5 14ZM7 83.5C7 85.433 5.433 87 3.5 87C1.567 87 0 85.433 0 83.5C0 81.567 1.567 80 3.5 80C5.433 80 7 81.567 7 83.5ZM466.5 87C468.433 87 470 85.433 470 83.5C470 81.567 468.433 80 466.5 80C464.567 80 463 81.567 463 83.5C463 85.433 464.567 87 466.5 87ZM70 86.5C70 87.8807 68.8807 89 67.5 89C66.1193 89 65 87.8807 65 86.5C65 85.1193 66.1193 84 67.5 84C68.8807 84 70 85.1193 70 86.5ZM530.5 89C531.881 89 533 87.8807 533 86.5C533 85.1193 531.881 84 530.5 84C529.119 84 528 85.1193 528 86.5C528 87.8807 529.119 89 530.5 89ZM241 86.5C241 87.8807 239.881 89 238.5 89C237.119 89 236 87.8807 236 86.5C236 85.1193 237.119 84 238.5 84C239.881 84 241 85.1193 241 86.5ZM379.5 89C382.538 89 385 86.5376 385 83.5C385 80.4624 382.538 78 379.5 78C376.462 78 374 80.4624 374 83.5C374 86.5376 376.462 89 379.5 89ZM9 9C9 11.2091 7.20914 13 5 13C2.79086 13 1 11.2091 1 9C1 6.79086 2.79086 5 5 5C7.20914 5 9 6.79086 9 9ZM468 13C470.209 13 472 11.2091 472 9C472 6.79086 470.209 5 468 5C465.791 5 464 6.79086 464 9C464 11.2091 465.791 13 468 13ZM62 5.5C62 6.88071 60.8807 8 59.5 8C58.1193 8 57 6.88071 57 5.5C57 4.11929 58.1193 3 59.5 3C60.8807 3 62 4.11929 62 5.5ZM522.5 8C523.881 8 525 6.88071 525 5.5C525 4.11929 523.881 3 522.5 3C521.119 3 520 4.11929 520 5.5C520 6.88071 521.119 8 522.5 8Z" fill="url(#paint0_linear_204_134)"/>
<defs>
<linearGradient id="paint0_linear_204_134" x1="125.805" y1="-1" x2="125.805" y2="89" gradientUnits="userSpaceOnUse">
<stop stop-color="#FBC140"/>
<stop offset="1" stop-color="#E69536"/>
</linearGradient>
</defs>
</svg>
