<svg width="52" height="52" viewBox="0 0 52 52" fill="none" xmlns="http://www.w3.org/2000/svg">
<path fill-rule="evenodd" clip-rule="evenodd" d="M38.7119 3.15722L40.6519 15.0402C40.7809 15.8262 41.1519 16.5522 41.7119 17.1112L50.1819 25.5602C51.9839 27.3582 51.5289 30.4142 49.2839 31.5942L38.7329 37.1362C38.0339 37.5032 37.4689 38.0852 37.1169 38.7982L31.8049 49.5722C30.6749 51.8652 27.6659 52.3712 25.8659 50.5722L17.4049 42.1142C16.8439 41.5542 16.1239 41.1892 15.3459 41.0702L3.59292 39.2802C1.09292 38.8992 -0.312077 36.1552 0.819923 33.8642L6.14192 23.0942C6.49492 22.3822 6.61492 21.5742 6.48592 20.7872L4.53392 8.90622C4.11892 6.37822 6.25992 4.17722 8.75992 4.56022L20.5099 6.36222C21.2879 6.48122 22.0829 6.34722 22.7809 5.98022L33.3269 0.427223C35.5709 -0.753777 38.2989 0.629223 38.7119 3.15722Z" fill="#865020"/>
</svg>
