<svg width="156" height="150" viewBox="0 0 156 150" fill="none" xmlns="http://www.w3.org/2000/svg">
<mask id="mask0_0_1" style="mask-type:alpha" maskUnits="userSpaceOnUse" x="34" y="0" width="122" height="120">
<rect x="34" width="122" height="120" fill="#D9D9D9"/>
</mask>
<g mask="url(#mask0_0_1)">
<path fill-rule="evenodd" clip-rule="evenodd" d="M52 -19.8262C42.6112 -19.8262 35 -12.215 35 -2.82617V94.9009L32 96.3549C32.197 99.5635 33.5199 107 37.2307 111.424C40.1592 116.547 45.6764 120 52 120H138C147.389 120 155 112.389 155 103V-2.82617C155 -12.215 147.389 -19.8262 138 -19.8262H52Z" fill="url(#paint0_linear_0_1)"/>
</g>
<mask id="mask1_0_1" style="mask-type:alpha" maskUnits="userSpaceOnUse" x="31" y="0" width="122" height="115">
<rect x="31" width="122" height="115" fill="#D9D9D9"/>
</mask>
<g mask="url(#mask1_0_1)">
<rect x="32" y="-19" width="120" height="134" rx="17" fill="url(#paint1_linear_0_1)"/>
</g>
<mask id="mask2_0_1" style="mask-type:alpha" maskUnits="userSpaceOnUse" x="40" y="0" width="105" height="108">
<rect x="40.5" y="0.5" width="104" height="107" fill="#D9D9D9" stroke="#F6EA9E"/>
</mask>
<g mask="url(#mask2_0_1)">
<g filter="url(#filter0_i_0_1)">
<rect x="40" y="-19.8164" width="105" height="127.817" rx="14" fill="url(#paint2_linear_0_1)"/>
</g>
<rect x="40.5" y="-19.3164" width="104" height="126.817" rx="13.5" stroke="#F6EA9E"/>
</g>
<g style="mix-blend-mode:multiply" filter="url(#filter1_d_0_1)">
<path fill-rule="evenodd" clip-rule="evenodd" d="M71 85C86.0142 85.1556 121.634 86.2133 144 89.2V92C131.057 89.9778 97.5078 85.7467 71 85ZM41 92C41 92 119.151 100 133 104C94.0722 98.3447 63.5554 98.011 49.6694 97.8591C44.5001 97.8026 41.6356 97.7713 41.5 97.5C41 96.5 41 92 41 92Z" fill="#7F5428" fill-opacity="0.69" shape-rendering="crispEdges"/>
</g>
<g style="mix-blend-mode:multiply" filter="url(#filter2_d_0_1)">
<path fill-rule="evenodd" clip-rule="evenodd" d="M64 13.5C64 16.5376 61.5376 19 58.5 19C55.4624 19 53 16.5376 53 13.5C53 10.4624 55.4624 8 58.5 8C61.5376 8 64 10.4624 64 13.5ZM74 17.5C74 19.433 72.433 21 70.5 21C68.567 21 67 19.433 67 17.5C67 15.567 68.567 14 70.5 14C72.433 14 74 15.567 74 17.5ZM129.5 80C131.433 80 133 78.433 133 76.5C133 74.567 131.433 73 129.5 73C127.567 73 126 74.567 126 76.5C126 78.433 127.567 80 129.5 80Z" fill="#7F5428" fill-opacity="0.69" shape-rendering="crispEdges"/>
</g>
<mask id="mask3_0_1" style="mask-type:alpha" maskUnits="userSpaceOnUse" x="8" y="0" width="117" height="150">
<path d="M69.5 0H17L8 66.5L11.5 123.5L71 150L125 120H63L39.5 93.5V51L69.5 0Z" fill="#D9D9D9"/>
</mask>
<g mask="url(#mask3_0_1)">
<g style="mix-blend-mode:hard-light">
<path d="M52.6001 -2C52.6001 -2 -2.74997 92.651 46 119.5C85.207 141.809 123.5 107.5 107.5 75.5C91.5 43.5 41 53.4 52.6001 91.5" stroke="url(#paint3_linear_0_1)" stroke-opacity="0.95" stroke-width="10" stroke-linecap="round"/>
</g>
</g>
<mask id="mask4_0_1" style="mask-type:alpha" maskUnits="userSpaceOnUse" x="0" y="0" width="117" height="150">
<path d="M61.5 0H9L0 66.5L3.5 123.5L63 150L117 120H55L31.5 93.5V51L61.5 0Z" fill="#D9D9D9"/>
</mask>
<g mask="url(#mask4_0_1)">
<g filter="url(#filter3_ii_0_1)">
<path d="M44.6001 -2C44.6001 -2 -10.75 92.651 38 119.5C77.207 141.809 115.5 107.5 99.5 75.5C83.5 43.5 33 53.4 44.6001 91.5" stroke="#2F845C" stroke-width="10" stroke-linecap="round"/>
</g>
</g>
<defs>
<filter id="filter0_i_0_1" x="40" y="-19.8164" width="105" height="127.816" filterUnits="userSpaceOnUse" color-interpolation-filters="sRGB">
<feFlood flood-opacity="0" result="BackgroundImageFix"/>
<feBlend mode="normal" in="SourceGraphic" in2="BackgroundImageFix" result="shape"/>
<feColorMatrix in="SourceAlpha" type="matrix" values="0 0 0 0 0 0 0 0 0 0 0 0 0 0 0 0 0 0 127 0" result="hardAlpha"/>
<feOffset dx="5" dy="-4"/>
<feComposite in2="hardAlpha" operator="arithmetic" k2="-1" k3="1"/>
<feColorMatrix type="matrix" values="0 0 0 0 0.454902 0 0 0 0 0.247059 0 0 0 0 0.0784314 0 0 0 1 0"/>
<feBlend mode="normal" in2="shape" result="effect1_innerShadow_0_1"/>
</filter>
<filter id="filter1_d_0_1" x="41" y="85" width="103" height="19.5" filterUnits="userSpaceOnUse" color-interpolation-filters="sRGB">
<feFlood flood-opacity="0" result="BackgroundImageFix"/>
<feColorMatrix in="SourceAlpha" type="matrix" values="0 0 0 0 0 0 0 0 0 0 0 0 0 0 0 0 0 0 127 0" result="hardAlpha"/>
<feOffset dy="0.5"/>
<feComposite in2="hardAlpha" operator="out"/>
<feColorMatrix type="matrix" values="0 0 0 0 0.8875 0 0 0 0 0.681808 0 0 0 0 0.410469 0 0 0 1 0"/>
<feBlend mode="normal" in2="BackgroundImageFix" result="effect1_dropShadow_0_1"/>
<feBlend mode="normal" in="SourceGraphic" in2="effect1_dropShadow_0_1" result="shape"/>
</filter>
<filter id="filter2_d_0_1" x="53" y="8" width="80.5" height="72.5" filterUnits="userSpaceOnUse" color-interpolation-filters="sRGB">
<feFlood flood-opacity="0" result="BackgroundImageFix"/>
<feColorMatrix in="SourceAlpha" type="matrix" values="0 0 0 0 0 0 0 0 0 0 0 0 0 0 0 0 0 0 127 0" result="hardAlpha"/>
<feOffset dx="0.5" dy="0.5"/>
<feComposite in2="hardAlpha" operator="out"/>
<feColorMatrix type="matrix" values="0 0 0 0 0.8875 0 0 0 0 0.681808 0 0 0 0 0.410469 0 0 0 1 0"/>
<feBlend mode="normal" in2="BackgroundImageFix" result="effect1_dropShadow_0_1"/>
<feBlend mode="normal" in="SourceGraphic" in2="effect1_dropShadow_0_1" result="shape"/>
</filter>
<filter id="filter3_ii_0_1" x="10.9216" y="-10.001" width="102.315" height="141.632" filterUnits="userSpaceOnUse" color-interpolation-filters="sRGB">
<feFlood flood-opacity="0" result="BackgroundImageFix"/>
<feBlend mode="normal" in="SourceGraphic" in2="BackgroundImageFix" result="shape"/>
<feColorMatrix in="SourceAlpha" type="matrix" values="0 0 0 0 0 0 0 0 0 0 0 0 0 0 0 0 0 0 127 0" result="hardAlpha"/>
<feOffset dx="5" dy="-3"/>
<feGaussianBlur stdDeviation="2.5"/>
<feComposite in2="hardAlpha" operator="arithmetic" k2="-1" k3="1"/>
<feColorMatrix type="matrix" values="0 0 0 0 0.376471 0 0 0 0 0.835294 0 0 0 0 0.396078 0 0 0 1 0"/>
<feBlend mode="normal" in2="shape" result="effect1_innerShadow_0_1"/>
<feColorMatrix in="SourceAlpha" type="matrix" values="0 0 0 0 0 0 0 0 0 0 0 0 0 0 0 0 0 0 127 0" result="hardAlpha"/>
<feOffset dx="-3" dy="-2"/>
<feGaussianBlur stdDeviation="1"/>
<feComposite in2="hardAlpha" operator="arithmetic" k2="-1" k3="1"/>
<feColorMatrix type="matrix" values="0 0 0 0 0.0886111 0 0 0 0 0.366667 0 0 0 0 0.224074 0 0 0 0.25 0"/>
<feBlend mode="normal" in2="effect1_innerShadow_0_1" result="effect2_innerShadow_0_1"/>
</filter>
<linearGradient id="paint0_linear_0_1" x1="133.5" y1="55.5" x2="90.5" y2="88.5" gradientUnits="userSpaceOnUse">
<stop stop-color="#643514"/>
<stop offset="0.520833" stop-color="#B48751"/>
<stop offset="0.994792" stop-color="#643514"/>
</linearGradient>
<linearGradient id="paint1_linear_0_1" x1="92" y1="-19" x2="92" y2="115" gradientUnits="userSpaceOnUse">
<stop stop-color="#FBDA7F"/>
<stop offset="1" stop-color="#F1C175"/>
</linearGradient>
<linearGradient id="paint2_linear_0_1" x1="92.5" y1="-19.8164" x2="92.5" y2="108" gradientUnits="userSpaceOnUse">
<stop stop-color="#BC8544"/>
<stop offset="1" stop-color="#BC8544"/>
</linearGradient>
<linearGradient id="paint3_linear_0_1" x1="68.5752" y1="-2" x2="68.5752" y2="126.632" gradientUnits="userSpaceOnUse">
<stop/>
<stop offset="1" stop-opacity="0"/>
</linearGradient>
</defs>
</svg>
