<svg width="891" height="150" viewBox="0 0 891 150" fill="none" xmlns="http://www.w3.org/2000/svg">
<rect x="72" y="16" width="819" height="100" rx="47.5" fill="url(#paint0_linear_0_1)"/>
<g filter="url(#filter0_i_0_1)">
<rect x="72" y="16" width="819" height="95" rx="47.5" fill="url(#paint1_linear_0_1)"/>
</g>
<g filter="url(#filter1_di_0_1)">
<path fill-rule="evenodd" clip-rule="evenodd" d="M194.941 28L842.559 28C862.409 28 878.5 43.6701 878.5 62.1015C878.5 82.3299 862.409 98 842.559 98H194.941C175.091 98 159 82.3299 159 62.1015C159 43.6701 175.091 28 194.941 28Z" fill="#BC8544"/>
</g>
<g filter="url(#filter2_di_0_1)">
<path fill-rule="evenodd" clip-rule="evenodd" d="M198.1 46.9932L701.5 46.9932C710.337 46.9932 717.5 54.1572 717.5 62.9932V63.0022C717.5 71.8392 710.337 79.0022 701.5 79.0022H198.1C190.163 79.0022 182.1 71.8392 182.1 63.0022V62.9932C182.1 54.1572 190.163 46.9932 198.1 46.9932Z" fill="#865020"/>
<path fill-rule="evenodd" clip-rule="evenodd" d="M479.289 41.1572L481.229 53.0402C481.358 53.8262 481.729 54.5522 482.289 55.1112L490.759 63.5602C492.561 65.3582 492.106 68.4142 489.861 69.5942L479.31 75.1362C478.611 75.5032 478.046 76.0852 477.694 76.7982L472.382 87.5722C471.252 89.8652 468.243 90.3712 466.443 88.5722L457.982 80.1142C457.421 79.5542 456.701 79.1892 455.923 79.0702L444.17 77.2802C441.67 76.8992 440.265 74.1552 441.397 71.8642L446.719 61.0942C447.072 60.3822 447.192 59.5742 447.063 58.7872L445.111 46.9062C444.696 44.3782 446.837 42.1772 449.337 42.5602L461.087 44.3622C461.865 44.4812 462.66 44.3472 463.358 43.9802L473.904 38.4272C476.148 37.2462 478.876 38.6292 479.289 41.1572Z" fill="#865020"/>
<path fill-rule="evenodd" clip-rule="evenodd" d="M695.289 41.1572L697.229 53.0402C697.358 53.8262 697.729 54.5522 698.289 55.1112L706.759 63.5602C708.561 65.3582 708.106 68.4142 705.861 69.5942L695.31 75.1362C694.611 75.5032 694.046 76.0852 693.694 76.7982L688.382 87.5722C687.252 89.8652 684.243 90.3712 682.443 88.5722L673.982 80.1142C673.421 79.5542 672.701 79.1892 671.923 79.0702L660.17 77.2802C657.67 76.8992 656.265 74.1552 657.397 71.8642L662.719 61.0942C663.072 60.3822 663.192 59.5742 663.063 58.7872L661.111 46.9062C660.696 44.3782 662.837 42.1772 665.337 42.5602L677.087 44.3622C677.865 44.4812 678.66 44.3472 679.358 43.9802L689.904 38.4272C692.148 37.2462 694.876 38.6292 695.289 41.1572Z" fill="#865020"/>
<path fill-rule="evenodd" clip-rule="evenodd" d="M263.712 41.1572L265.652 53.0402C265.781 53.8262 266.152 54.5522 266.712 55.1112L275.182 63.5602C276.984 65.3582 276.529 68.4142 274.284 69.5942L263.733 75.1362C263.034 75.5032 262.469 76.0852 262.117 76.7982L256.805 87.5722C255.675 89.8652 252.666 90.3712 250.866 88.5722L242.405 80.1142C241.844 79.5542 241.124 79.1892 240.346 79.0702L228.593 77.2802C226.093 76.8992 224.688 74.1552 225.82 71.8642L231.142 61.0942C231.495 60.3822 231.615 59.5742 231.486 58.7872L229.534 46.9062C229.119 44.3782 231.26 42.1772 233.76 42.5602L245.51 44.3622C246.288 44.4812 247.083 44.3472 247.781 43.9802L258.327 38.4272C260.571 37.2462 263.299 38.6292 263.712 41.1572Z" fill="#865020"/>
</g>
<rect x="185" y="50" width="529" height="26" rx="13" fill="url(#paint2_linear_0_1)"/>
<mask id="mask0_0_1" style="mask-type:alpha" maskUnits="userSpaceOnUse" x="185" y="50" width="529" height="26">
<rect x="185" y="50" width="529" height="26" rx="13" fill="url(#paint3_linear_0_1)"/>
</mask>
<g mask="url(#mask0_0_1)">
<g style="mix-blend-mode:color-dodge">
<path fill-rule="evenodd" clip-rule="evenodd" d="M164.004 46L172.211 49.8054L157.941 80.5819L149.734 76.7765L164.004 46ZM185.919 46L194.126 49.8054L179.856 80.5819L171.649 76.7765L185.919 46ZM276.383 46L284.59 49.8054L270.32 80.5819L262.113 76.7765L276.383 46ZM375.054 49.8054L366.846 46L352.576 76.7765L360.783 80.5819L375.054 49.8054ZM457.31 46L465.517 49.8054L451.247 80.5819L443.04 76.7765L457.31 46ZM555.981 49.8054L547.774 46L533.504 76.7765L541.711 80.5819L555.981 49.8054ZM638.238 46L646.445 49.8054L632.175 80.5819L623.967 76.7765L638.238 46ZM736.908 49.8054L728.701 46L714.431 76.7765L722.638 80.5819L736.908 49.8054ZM261.974 49.8054L253.767 46L239.497 76.7765L247.704 80.5819L261.974 49.8054ZM344.231 46L352.438 49.8054L338.167 80.5819L329.96 76.7765L344.231 46ZM442.901 49.8054L434.694 46L420.424 76.7765L428.631 80.5819L442.901 49.8054ZM525.158 46L533.365 49.8054L519.095 80.5819L510.888 76.7765L525.158 46ZM623.829 49.8054L615.622 46L601.352 76.7765L609.559 80.5819L623.829 49.8054ZM706.085 46L714.292 49.8054L700.022 80.5819L691.815 76.7765L706.085 46ZM216.742 49.8054L208.535 46L194.265 76.7765L202.472 80.5819L216.742 49.8054ZM298.999 46L307.206 49.8054L292.936 80.5819L284.729 76.7765L298.999 46ZM397.669 49.8054L389.462 46L375.192 76.7765L383.399 80.5819L397.669 49.8054ZM479.926 46L488.133 49.8054L473.863 80.5819L465.656 76.7765L479.926 46ZM578.597 49.8054L570.39 46L556.12 76.7765L564.327 80.5819L578.597 49.8054ZM660.853 46L669.061 49.8054L654.79 80.5819L646.583 76.7765L660.853 46ZM759.524 49.8054L751.317 46L737.047 76.7765L745.254 80.5819L759.524 49.8054ZM231.151 46L239.358 49.8054L225.088 80.5819L216.881 76.7765L231.151 46ZM329.822 49.8054L321.615 46L307.344 76.7765L315.552 80.5819L329.822 49.8054ZM412.078 46L420.285 49.8054L406.015 80.5819L397.808 76.7765L412.078 46ZM510.749 49.8054L502.542 46L488.272 76.7765L496.479 80.5819L510.749 49.8054ZM593.006 46L601.213 49.8054L586.943 80.5819L578.736 76.7765L593.006 46ZM691.677 49.8054L683.469 46L669.199 76.7765L677.406 80.5819L691.677 49.8054Z" fill="#C8FF98" fill-opacity="0.4"/>
</g>
</g>
<mask id="mask1_0_1" style="mask-type:alpha" maskUnits="userSpaceOnUse" x="34" y="0" width="122" height="120">
<rect x="34" width="122" height="120" fill="#D9D9D9"/>
</mask>
<g mask="url(#mask1_0_1)">
<path fill-rule="evenodd" clip-rule="evenodd" d="M52 -19.8262C42.6112 -19.8262 35 -12.215 35 -2.82617V94.9009L32 96.3549C32.197 99.5635 33.5199 107 37.2307 111.424C40.1592 116.547 45.6764 120 52 120H138C147.389 120 155 112.389 155 103V-2.82617C155 -12.215 147.389 -19.8262 138 -19.8262H52Z" fill="url(#paint4_linear_0_1)"/>
</g>
<mask id="mask2_0_1" style="mask-type:alpha" maskUnits="userSpaceOnUse" x="31" y="0" width="122" height="115">
<rect x="31" width="122" height="115" fill="#D9D9D9"/>
</mask>
<g mask="url(#mask2_0_1)">
<rect x="32" y="-19" width="120" height="134" rx="17" fill="url(#paint5_linear_0_1)"/>
</g>
<mask id="mask3_0_1" style="mask-type:alpha" maskUnits="userSpaceOnUse" x="40" y="0" width="105" height="108">
<rect x="40.5" y="0.5" width="104" height="107" fill="#D9D9D9" stroke="#F6EA9E"/>
</mask>
<g mask="url(#mask3_0_1)">
<g filter="url(#filter3_i_0_1)">
<rect x="40" y="-19.8164" width="105" height="127.817" rx="14" fill="url(#paint6_linear_0_1)"/>
</g>
<rect x="40.5" y="-19.3164" width="104" height="126.817" rx="13.5" stroke="#F6EA9E"/>
</g>
<g style="mix-blend-mode:multiply" filter="url(#filter4_d_0_1)">
<path fill-rule="evenodd" clip-rule="evenodd" d="M71 85C86.0142 85.1556 121.634 86.2133 144 89.2V92C131.057 89.9778 97.5078 85.7467 71 85ZM41 92C41 92 119.151 100 133 104C94.0722 98.3447 63.5554 98.011 49.6694 97.8591C44.5001 97.8026 41.6356 97.7713 41.5 97.5C41 96.5 41 92 41 92Z" fill="#7F5428" fill-opacity="0.69" shape-rendering="crispEdges"/>
</g>
<g style="mix-blend-mode:multiply" filter="url(#filter5_d_0_1)">
<path fill-rule="evenodd" clip-rule="evenodd" d="M64 13.5C64 16.5376 61.5376 19 58.5 19C55.4624 19 53 16.5376 53 13.5C53 10.4624 55.4624 8 58.5 8C61.5376 8 64 10.4624 64 13.5ZM74 17.5C74 19.433 72.433 21 70.5 21C68.567 21 67 19.433 67 17.5C67 15.567 68.567 14 70.5 14C72.433 14 74 15.567 74 17.5ZM129.5 80C131.433 80 133 78.433 133 76.5C133 74.567 131.433 73 129.5 73C127.567 73 126 74.567 126 76.5C126 78.433 127.567 80 129.5 80Z" fill="#7F5428" fill-opacity="0.69" shape-rendering="crispEdges"/>
</g>
<circle cx="848" cy="46" r="6" fill="#643F1B"/>
<mask id="mask4_0_1" style="mask-type:alpha" maskUnits="userSpaceOnUse" x="842" y="0" width="24" height="54">
<rect x="842" width="24" height="54" fill="#D9D9D9"/>
</mask>
<g mask="url(#mask4_0_1)">
<g filter="url(#filter6_i_0_1)">
<path d="M854.1 -14C854.1 -14 859.436 48.284 848.1 46.1" stroke="#EEBB85" stroke-width="10" stroke-linecap="round"/>
</g>
<g filter="url(#filter7_dd_0_1)">
<mask id="mask5_0_1" style="mask-type:alpha" maskUnits="userSpaceOnUse" x="843" y="-20" width="18" height="72">
<path d="M854.1 -14C854.1 -14 859.436 48.284 848.1 46.1" stroke="#EEBB85" stroke-width="10" stroke-linecap="round"/>
</mask>
<g mask="url(#mask5_0_1)">
<path d="M846.5 38C846.333 39.5 847.1 42.8 851.5 44C855.9 45.2 858.333 43.1667 859 42M848.5 35C849.667 37 853.6 40.7 860 39.5M848.5 33C858 36.5 861 28.5 861 28.5C858.333 29.6667 852.2 31.5 849 29.5C853.471 29.6131 862.469 21.8614 862.5 21" stroke="url(#paint7_linear_0_1)"/>
<path d="M862.5 21C856.557 25.5061 846.53 23.3147 848.5 21C852.167 21 859.8 19.9 861 15.5" stroke="url(#paint8_linear_0_1)"/>
<path d="M848.021 12C847.854 13.5 848.621 16.8 853.021 18C857.421 19.2 860.854 15.1667 861.521 14V12C853.5 16 849.667 11 848.5 9V6.5C858 10 861.521 2 861.521 2C858.854 3.16667 851.7 5 848.5 3C852.971 3.1131 861.489 -3.13858 861.521 -4" stroke="url(#paint9_linear_0_1)"/>
</g>
</g>
</g>
<mask id="mask6_0_1" style="mask-type:alpha" maskUnits="userSpaceOnUse" x="8" y="0" width="117" height="150">
<path d="M69.5 0H17L8 66.5L11.5 123.5L71 150L125 120H63L39.5 93.5V51L69.5 0Z" fill="#D9D9D9"/>
</mask>
<g mask="url(#mask6_0_1)">
<g style="mix-blend-mode:hard-light">
<path d="M52.6001 -2C52.6001 -2 -2.74997 92.651 46 119.5C85.207 141.809 123.5 107.5 107.5 75.5C91.5 43.5 41 53.4 52.6001 91.5" stroke="url(#paint10_linear_0_1)" stroke-opacity="0.95" stroke-width="10" stroke-linecap="round"/>
</g>
</g>
<mask id="mask7_0_1" style="mask-type:alpha" maskUnits="userSpaceOnUse" x="0" y="0" width="117" height="150">
<path d="M61.5 0H9L0 66.5L3.5 123.5L63 150L117 120H55L31.5 93.5V51L61.5 0Z" fill="#D9D9D9"/>
</mask>
<g mask="url(#mask7_0_1)">
<g filter="url(#filter8_ii_0_1)">
<path d="M44.6001 -2C44.6001 -2 -10.75 92.651 38 119.5C77.207 141.809 115.5 107.5 99.5 75.5C83.5 43.5 33 53.4 44.6001 91.5" stroke="#2F845C" stroke-width="10" stroke-linecap="round"/>
</g>
</g>
<defs>
<filter id="filter0_i_0_1" x="72" y="16" width="819" height="95" filterUnits="userSpaceOnUse" color-interpolation-filters="sRGB">
<feFlood flood-opacity="0" result="BackgroundImageFix"/>
<feBlend mode="normal" in="SourceGraphic" in2="BackgroundImageFix" result="shape"/>
<feColorMatrix in="SourceAlpha" type="matrix" values="0 0 0 0 0 0 0 0 0 0 0 0 0 0 0 0 0 0 127 0" result="hardAlpha"/>
<feOffset dx="-1" dy="2"/>
<feComposite in2="hardAlpha" operator="arithmetic" k2="-1" k3="1"/>
<feColorMatrix type="matrix" values="0 0 0 0 1 0 0 0 0 1 0 0 0 0 1 0 0 0 1 0"/>
<feBlend mode="normal" in2="shape" result="effect1_innerShadow_0_1"/>
</filter>
<filter id="filter1_di_0_1" x="159" y="28" width="719.5" height="71" filterUnits="userSpaceOnUse" color-interpolation-filters="sRGB">
<feFlood flood-opacity="0" result="BackgroundImageFix"/>
<feColorMatrix in="SourceAlpha" type="matrix" values="0 0 0 0 0 0 0 0 0 0 0 0 0 0 0 0 0 0 127 0" result="hardAlpha"/>
<feOffset dy="1"/>
<feComposite in2="hardAlpha" operator="out"/>
<feColorMatrix type="matrix" values="0 0 0 0 1 0 0 0 0 1 0 0 0 0 0.529412 0 0 0 1 0"/>
<feBlend mode="normal" in2="BackgroundImageFix" result="effect1_dropShadow_0_1"/>
<feBlend mode="normal" in="SourceGraphic" in2="effect1_dropShadow_0_1" result="shape"/>
<feColorMatrix in="SourceAlpha" type="matrix" values="0 0 0 0 0 0 0 0 0 0 0 0 0 0 0 0 0 0 127 0" result="hardAlpha"/>
<feOffset dx="1" dy="3"/>
<feComposite in2="hardAlpha" operator="arithmetic" k2="-1" k3="1"/>
<feColorMatrix type="matrix" values="0 0 0 0 0.372549 0 0 0 0 0.188235 0 0 0 0 0.0588235 0 0 0 1 0"/>
<feBlend mode="normal" in2="shape" result="effect2_innerShadow_0_1"/>
</filter>
<filter id="filter2_di_0_1" x="181.47" y="35.48" width="536.03" height="54.1782" filterUnits="userSpaceOnUse" color-interpolation-filters="sRGB">
<feFlood flood-opacity="0" result="BackgroundImageFix"/>
<feColorMatrix in="SourceAlpha" type="matrix" values="0 0 0 0 0 0 0 0 0 0 0 0 0 0 0 0 0 0 127 0" result="hardAlpha"/>
<feOffset dx="-0.63" dy="-2.52"/>
<feColorMatrix type="matrix" values="0 0 0 0 0.945098 0 0 0 0 0.807843 0 0 0 0 0.466667 0 0 0 1 0"/>
<feBlend mode="normal" in2="BackgroundImageFix" result="effect1_dropShadow_0_1"/>
<feBlend mode="normal" in="SourceGraphic" in2="effect1_dropShadow_0_1" result="shape"/>
<feColorMatrix in="SourceAlpha" type="matrix" values="0 0 0 0 0 0 0 0 0 0 0 0 0 0 0 0 0 0 127 0" result="hardAlpha"/>
<feOffset dy="3"/>
<feComposite in2="hardAlpha" operator="arithmetic" k2="-1" k3="1"/>
<feColorMatrix type="matrix" values="0 0 0 0 0.372549 0 0 0 0 0.188235 0 0 0 0 0.0588235 0 0 0 1 0"/>
<feBlend mode="normal" in2="shape" result="effect2_innerShadow_0_1"/>
</filter>
<filter id="filter3_i_0_1" x="40" y="-19.8164" width="105" height="127.816" filterUnits="userSpaceOnUse" color-interpolation-filters="sRGB">
<feFlood flood-opacity="0" result="BackgroundImageFix"/>
<feBlend mode="normal" in="SourceGraphic" in2="BackgroundImageFix" result="shape"/>
<feColorMatrix in="SourceAlpha" type="matrix" values="0 0 0 0 0 0 0 0 0 0 0 0 0 0 0 0 0 0 127 0" result="hardAlpha"/>
<feOffset dx="5" dy="-4"/>
<feComposite in2="hardAlpha" operator="arithmetic" k2="-1" k3="1"/>
<feColorMatrix type="matrix" values="0 0 0 0 0.454902 0 0 0 0 0.247059 0 0 0 0 0.0784314 0 0 0 1 0"/>
<feBlend mode="normal" in2="shape" result="effect1_innerShadow_0_1"/>
</filter>
<filter id="filter4_d_0_1" x="41" y="85" width="103" height="19.5" filterUnits="userSpaceOnUse" color-interpolation-filters="sRGB">
<feFlood flood-opacity="0" result="BackgroundImageFix"/>
<feColorMatrix in="SourceAlpha" type="matrix" values="0 0 0 0 0 0 0 0 0 0 0 0 0 0 0 0 0 0 127 0" result="hardAlpha"/>
<feOffset dy="0.5"/>
<feComposite in2="hardAlpha" operator="out"/>
<feColorMatrix type="matrix" values="0 0 0 0 0.8875 0 0 0 0 0.681808 0 0 0 0 0.410469 0 0 0 1 0"/>
<feBlend mode="normal" in2="BackgroundImageFix" result="effect1_dropShadow_0_1"/>
<feBlend mode="normal" in="SourceGraphic" in2="effect1_dropShadow_0_1" result="shape"/>
</filter>
<filter id="filter5_d_0_1" x="53" y="8" width="80.5" height="72.5" filterUnits="userSpaceOnUse" color-interpolation-filters="sRGB">
<feFlood flood-opacity="0" result="BackgroundImageFix"/>
<feColorMatrix in="SourceAlpha" type="matrix" values="0 0 0 0 0 0 0 0 0 0 0 0 0 0 0 0 0 0 127 0" result="hardAlpha"/>
<feOffset dx="0.5" dy="0.5"/>
<feComposite in2="hardAlpha" operator="out"/>
<feColorMatrix type="matrix" values="0 0 0 0 0.8875 0 0 0 0 0.681808 0 0 0 0 0.410469 0 0 0 1 0"/>
<feBlend mode="normal" in2="BackgroundImageFix" result="effect1_dropShadow_0_1"/>
<feBlend mode="normal" in="SourceGraphic" in2="effect1_dropShadow_0_1" result="shape"/>
</filter>
<filter id="filter6_i_0_1" x="841.099" y="-19.0005" width="19.2556" height="70.1567" filterUnits="userSpaceOnUse" color-interpolation-filters="sRGB">
<feFlood flood-opacity="0" result="BackgroundImageFix"/>
<feBlend mode="normal" in="SourceGraphic" in2="BackgroundImageFix" result="shape"/>
<feColorMatrix in="SourceAlpha" type="matrix" values="0 0 0 0 0 0 0 0 0 0 0 0 0 0 0 0 0 0 127 0" result="hardAlpha"/>
<feOffset dx="-2"/>
<feGaussianBlur stdDeviation="1.5"/>
<feComposite in2="hardAlpha" operator="arithmetic" k2="-1" k3="1"/>
<feColorMatrix type="matrix" values="0 0 0 0 0.576471 0 0 0 0 0.411765 0 0 0 0 0.215686 0 0 0 0.72 0"/>
<feBlend mode="multiply" in2="shape" result="effect1_innerShadow_0_1"/>
</filter>
<filter id="filter7_dd_0_1" x="845.979" y="-4.6167" width="14.3752" height="49.9829" filterUnits="userSpaceOnUse" color-interpolation-filters="sRGB">
<feFlood flood-opacity="0" result="BackgroundImageFix"/>
<feColorMatrix in="SourceAlpha" type="matrix" values="0 0 0 0 0 0 0 0 0 0 0 0 0 0 0 0 0 0 127 0" result="hardAlpha"/>
<feOffset dy="0.5"/>
<feComposite in2="hardAlpha" operator="out"/>
<feColorMatrix type="matrix" values="0 0 0 0 0 0 0 0 0 0 0 0 0 0 0 0 0 0 0.54 0"/>
<feBlend mode="normal" in2="BackgroundImageFix" result="effect1_dropShadow_0_1"/>
<feColorMatrix in="SourceAlpha" type="matrix" values="0 0 0 0 0 0 0 0 0 0 0 0 0 0 0 0 0 0 127 0" result="hardAlpha"/>
<feOffset dy="-0.5"/>
<feComposite in2="hardAlpha" operator="out"/>
<feColorMatrix type="matrix" values="0 0 0 0 0.988235 0 0 0 0 0.866667 0 0 0 0 0.498039 0 0 0 1 0"/>
<feBlend mode="normal" in2="effect1_dropShadow_0_1" result="effect2_dropShadow_0_1"/>
<feBlend mode="normal" in="SourceGraphic" in2="effect2_dropShadow_0_1" result="shape"/>
</filter>
<filter id="filter8_ii_0_1" x="10.9216" y="-10.001" width="102.315" height="141.632" filterUnits="userSpaceOnUse" color-interpolation-filters="sRGB">
<feFlood flood-opacity="0" result="BackgroundImageFix"/>
<feBlend mode="normal" in="SourceGraphic" in2="BackgroundImageFix" result="shape"/>
<feColorMatrix in="SourceAlpha" type="matrix" values="0 0 0 0 0 0 0 0 0 0 0 0 0 0 0 0 0 0 127 0" result="hardAlpha"/>
<feOffset dx="5" dy="-3"/>
<feGaussianBlur stdDeviation="2.5"/>
<feComposite in2="hardAlpha" operator="arithmetic" k2="-1" k3="1"/>
<feColorMatrix type="matrix" values="0 0 0 0 0.376471 0 0 0 0 0.835294 0 0 0 0 0.396078 0 0 0 1 0"/>
<feBlend mode="normal" in2="shape" result="effect1_innerShadow_0_1"/>
<feColorMatrix in="SourceAlpha" type="matrix" values="0 0 0 0 0 0 0 0 0 0 0 0 0 0 0 0 0 0 127 0" result="hardAlpha"/>
<feOffset dx="-3" dy="-2"/>
<feGaussianBlur stdDeviation="1"/>
<feComposite in2="hardAlpha" operator="arithmetic" k2="-1" k3="1"/>
<feColorMatrix type="matrix" values="0 0 0 0 0.0886111 0 0 0 0 0.366667 0 0 0 0 0.224074 0 0 0 0.25 0"/>
<feBlend mode="normal" in2="effect1_innerShadow_0_1" result="effect2_innerShadow_0_1"/>
</filter>
<linearGradient id="paint0_linear_0_1" x1="831" y1="-12.9474" x2="685.145" y2="165.06" gradientUnits="userSpaceOnUse">
<stop stop-color="#643514"/>
<stop offset="0.578125" stop-color="#B38650"/>
<stop offset="1" stop-color="#643514"/>
</linearGradient>
<linearGradient id="paint1_linear_0_1" x1="481.5" y1="16" x2="481.5" y2="111" gradientUnits="userSpaceOnUse">
<stop stop-color="#FDDF80"/>
<stop offset="1" stop-color="#F1C275"/>
</linearGradient>
<linearGradient id="paint2_linear_0_1" x1="449.5" y1="50" x2="449.5" y2="76" gradientUnits="userSpaceOnUse">
<stop stop-color="#AFFF94" stop-opacity="0.972549"/>
<stop offset="0.34375" stop-color="#70E536" stop-opacity="0.99001"/>
<stop offset="0.597739" stop-color="#4BD600"/>
<stop offset="1" stop-color="#DFFF15"/>
</linearGradient>
<linearGradient id="paint3_linear_0_1" x1="449.5" y1="50" x2="449.5" y2="76" gradientUnits="userSpaceOnUse">
<stop stop-color="#D0FFC0" stop-opacity="0.972549"/>
<stop offset="0.515625" stop-color="#59FC00"/>
<stop offset="1" stop-color="#E1FF27"/>
</linearGradient>
<linearGradient id="paint4_linear_0_1" x1="133.5" y1="55.5" x2="90.5" y2="88.5" gradientUnits="userSpaceOnUse">
<stop stop-color="#643514"/>
<stop offset="0.520833" stop-color="#B48751"/>
<stop offset="0.994792" stop-color="#643514"/>
</linearGradient>
<linearGradient id="paint5_linear_0_1" x1="92" y1="-19" x2="92" y2="115" gradientUnits="userSpaceOnUse">
<stop stop-color="#FBDA7F"/>
<stop offset="1" stop-color="#F1C175"/>
</linearGradient>
<linearGradient id="paint6_linear_0_1" x1="92.5" y1="-19.8164" x2="92.5" y2="108" gradientUnits="userSpaceOnUse">
<stop stop-color="#BC8544"/>
<stop offset="1" stop-color="#BC8544"/>
</linearGradient>
<linearGradient id="paint7_linear_0_1" x1="854.49" y1="21" x2="854.49" y2="44.3664" gradientUnits="userSpaceOnUse">
<stop stop-color="#5F300F"/>
<stop offset="1" stop-color="#A5713F" stop-opacity="0.42"/>
</linearGradient>
<linearGradient id="paint8_linear_0_1" x1="855.374" y1="15.5" x2="855.374" y2="23.6208" gradientUnits="userSpaceOnUse">
<stop stop-color="#5F300F"/>
<stop offset="1" stop-color="#A5713F" stop-opacity="0.42"/>
</linearGradient>
<linearGradient id="paint9_linear_0_1" x1="854.76" y1="-4" x2="854.76" y2="18.2206" gradientUnits="userSpaceOnUse">
<stop stop-color="#5F300F"/>
<stop offset="1" stop-color="#A5713F" stop-opacity="0.42"/>
</linearGradient>
<linearGradient id="paint10_linear_0_1" x1="68.5752" y1="-2" x2="68.5752" y2="126.632" gradientUnits="userSpaceOnUse">
<stop/>
<stop offset="1" stop-opacity="0"/>
</linearGradient>
</defs>
</svg>
