<svg width="117" height="118" viewBox="0 0 117 118" fill="none" xmlns="http://www.w3.org/2000/svg">
<path fill-rule="evenodd" clip-rule="evenodd" d="M58.804 3.24304C90.428 3.24304 116.065 28.763 116.065 60.243C116.065 91.723 90.428 117.243 58.804 117.243C27.18 117.243 1.543 91.723 1.543 60.243C1.543 28.763 27.18 3.24304 58.804 3.24304Z" fill="#362213" fill-opacity="0.78"/>
<path fill-rule="evenodd" clip-rule="evenodd" d="M57.804 1.24304C89.428 1.24304 115.065 26.763 115.065 58.243C115.065 89.723 89.428 115.243 57.804 115.243C26.18 115.243 0.542999 89.723 0.542999 58.243C0.542999 26.763 26.18 1.24304 57.804 1.24304Z" fill="url(#paint0_linear_164_167)" stroke="#73503E"/>
<g filter="url(#filter0_di_164_167)">
<g filter="url(#filter1_d_164_167)">
<path fill-rule="evenodd" clip-rule="evenodd" d="M57.806 6.953C86.274 6.953 109.353 30.01 109.353 58.453C109.353 86.896 86.274 109.953 57.806 109.953C29.337 109.953 6.259 86.896 6.259 58.453C6.259 30.01 29.337 6.953 57.806 6.953Z" fill="#6A4630"/>
</g>
</g>
<mask id="mask0_164_167" style="mask-type:alpha" maskUnits="userSpaceOnUse" x="6" y="7" width="103" height="103">
<circle cx="57.5" cy="58.5" r="51.5" fill="#D9D9D9"/>
</mask>
<g mask="url(#mask0_164_167)">
<g filter="url(#filter2_d_164_167)">
<path fill-rule="evenodd" clip-rule="evenodd" d="M81.806 54.5C44.47 54.803 -0.194 32.5 -0.194 32.5L10.806 29.5C10.806 29.5 41.064 48.913 82.806 50.5C124.548 52.086 137.806 55.5 137.806 55.5C124.305 53.426 119.141 54.197 81.806 54.5ZM-2.194 65.5C-22.569 65.5 -29.194 48.5 -29.194 48.5L-18.194 45.5C-18.194 45.5 -15.999 61.5 -1.194 61.5C40.578 61.5 84.806 72.5 84.806 72.5C71.305 70.426 35.143 65.5 -2.194 65.5ZM28.681 79.713C29.145 81.014 28.466 82.444 27.166 82.908C25.865 83.371 24.435 82.693 23.971 81.392C23.508 80.092 24.186 78.662 25.487 78.198C26.787 77.734 28.217 78.413 28.681 79.713ZM38.633 86.782C39.653 89.643 38.371 92.714 35.77 93.641C33.169 94.569 30.234 93.001 29.213 90.14C28.193 87.279 29.475 84.208 32.076 83.28C34.677 82.353 37.613 83.921 38.633 86.782Z" fill="#4A321A"/>
</g>
</g>
<defs>
<filter id="filter0_di_164_167" x="4.559" y="5.253" width="107.094" height="107" filterUnits="userSpaceOnUse" color-interpolation-filters="sRGB">
<feFlood flood-opacity="0" result="BackgroundImageFix"/>
<feColorMatrix in="SourceAlpha" type="matrix" values="0 0 0 0 0 0 0 0 0 0 0 0 0 0 0 0 0 0 127 0" result="hardAlpha"/>
<feOffset dx="0.3" dy="0.3"/>
<feGaussianBlur stdDeviation="1"/>
<feColorMatrix type="matrix" values="0 0 0 0 0.854902 0 0 0 0 0.709804 0 0 0 0 0.466667 0 0 0 1 0"/>
<feBlend mode="normal" in2="BackgroundImageFix" result="effect1_dropShadow_164_167"/>
<feBlend mode="normal" in="SourceGraphic" in2="effect1_dropShadow_164_167" result="shape"/>
<feColorMatrix in="SourceAlpha" type="matrix" values="0 0 0 0 0 0 0 0 0 0 0 0 0 0 0 0 0 0 127 0" result="hardAlpha"/>
<feOffset dx="2" dy="2"/>
<feGaussianBlur stdDeviation="0.5"/>
<feComposite in2="hardAlpha" operator="arithmetic" k2="-1" k3="1"/>
<feColorMatrix type="matrix" values="0 0 0 0 0 0 0 0 0 0 0 0 0 0 0 0 0 0 0.25 0"/>
<feBlend mode="normal" in2="shape" result="effect2_innerShadow_164_167"/>
</filter>
<filter id="filter1_d_164_167" x="5.893" y="6.953" width="107.094" height="107.516" filterUnits="userSpaceOnUse" color-interpolation-filters="sRGB">
<feFlood flood-opacity="0" result="BackgroundImageFix"/>
<feColorMatrix in="SourceAlpha" type="matrix" values="0 0 0 0 0 0 0 0 0 0 0 0 0 0 0 0 0 0 127 0" result="hardAlpha"/>
<feOffset dx="1.634" dy="2.516"/>
<feGaussianBlur stdDeviation="1"/>
<feColorMatrix type="matrix" values="0 0 0 0 0.854902 0 0 0 0 0.709804 0 0 0 0 0.466667 0 0 0 1 0"/>
<feBlend mode="normal" in2="BackgroundImageFix" result="effect1_dropShadow_164_167"/>
<feBlend mode="normal" in="SourceGraphic" in2="effect1_dropShadow_164_167" result="shape"/>
</filter>
<filter id="filter2_d_164_167" x="-29.194" y="29.5" width="167.707" height="65.1151" filterUnits="userSpaceOnUse" color-interpolation-filters="sRGB">
<feFlood flood-opacity="0" result="BackgroundImageFix"/>
<feColorMatrix in="SourceAlpha" type="matrix" values="0 0 0 0 0 0 0 0 0 0 0 0 0 0 0 0 0 0 127 0" result="hardAlpha"/>
<feOffset dx="0.707" dy="0.707"/>
<feColorMatrix type="matrix" values="0 0 0 0 0.854902 0 0 0 0 0.709804 0 0 0 0 0.466667 0 0 0 1 0"/>
<feBlend mode="normal" in2="BackgroundImageFix" result="effect1_dropShadow_164_167"/>
<feBlend mode="normal" in="SourceGraphic" in2="effect1_dropShadow_164_167" result="shape"/>
</filter>
<linearGradient id="paint0_linear_164_167" x1="0.542999" y1="115.243" x2="0.542999" y2="1.24304" gradientUnits="userSpaceOnUse">
<stop stop-color="#BE8F61"/>
<stop offset="1" stop-color="#DCB477"/>
</linearGradient>
</defs>
</svg>
